<svg xmlns="http://www.w3.org/2000/svg" width="208.12" height="299.144" viewBox="0 0 208.12 299.144"><path d="M208.11,100.4c-.21,27.9-6.02,50.19-14.82,71.78-14.61,35.84-35.53,67.85-60.32,97.37-7.98,9.51-16.87,18.28-25.52,27.22-3.16,3.26-3.45,3.09-6.89-.06-13.62-12.49-25.25-26.75-36.39-41.41-19.22-25.29-35.91-52.12-48.25-81.49C7.99,154.9,2.34,135.39.47,114.88-4.87,56.08,35.87,10.07,85.96,1.55c50.65-8.61,98.69,19.33,116.14,67.44,4.19,11.55,6.17,23.5,6.01,31.41ZM104.16,164.86A61,61,0,1,0,43.05,103.8,60.937,60.937,0,0,0,104.16,164.86Z" transform="translate(0.002 -0.001)" fill="#cd181e"/></svg>